<svg width="1024" height="1024" viewBox="0 0 1024 1024" xmlns="http://www.w3.org/2000/svg">
  <defs>
    <linearGradient id="bg" x1="0" y1="0" x2="0.35" y2="1">
      <stop offset="0" stop-color="#8B7BFF"/>
      <stop offset="0.55" stop-color="#5B3FE0"/>
      <stop offset="1" stop-color="#3A1E9E"/>
    </linearGradient>
    <linearGradient id="gloss" x1="0" y1="0" x2="0" y2="1">
      <stop offset="0" stop-color="#FFFFFF" stop-opacity="0.28"/>
      <stop offset="0.5" stop-color="#FFFFFF" stop-opacity="0.04"/>
      <stop offset="1" stop-color="#FFFFFF" stop-opacity="0"/>
    </linearGradient>
    <linearGradient id="wave" x1="0" y1="0" x2="0" y2="1">
      <stop offset="0" stop-color="#FFFFFF"/>
      <stop offset="1" stop-color="#E8E2FF"/>
    </linearGradient>
  </defs>

  <!-- squircle -->
  <rect x="100" y="100" width="824" height="824" rx="184" fill="url(#bg)"/>
  <rect x="100" y="100" width="824" height="824" rx="184" fill="url(#gloss)"/>

  <!-- waveform -->
  <g fill="url(#wave)">
    <rect x="310" y="340" width="44" height="120" rx="22"/>
    <rect x="370" y="300" width="44" height="200" rx="22"/>
    <rect x="430" y="260" width="44" height="280" rx="22"/>
    <rect x="490" y="240" width="44" height="320" rx="22"/>
    <rect x="550" y="260" width="44" height="280" rx="22"/>
    <rect x="610" y="300" width="44" height="200" rx="22"/>
    <rect x="670" y="340" width="44" height="120" rx="22"/>
  </g>

  <!-- open book -->
  <g>
    <path d="M 512 622 C 466 590 386 578 306 585 L 306 745 C 386 738 466 750 512 782 Z"
          fill="#FFFFFF" fill-opacity="0.97"/>
    <path d="M 512 622 C 558 590 638 578 718 585 L 718 745 C 638 738 558 750 512 782 Z"
          fill="#FFFFFF" fill-opacity="0.80"/>
    <path d="M 512 622 L 512 782" stroke="#3A1E9E" stroke-opacity="0.35" stroke-width="10" stroke-linecap="round"/>
  </g>
</svg>
